<?xml version="1.0" encoding="UTF-8" standalone="no"?>
<svg
   version="1.1"
   width="48"
   height="48"
   id="svg4117"
   xmlns:xlink="http://www.w3.org/1999/xlink"
   xmlns="http://www.w3.org/2000/svg"
   xmlns:svg="http://www.w3.org/2000/svg"
   xmlns:rdf="http://www.w3.org/1999/02/22-rdf-syntax-ns#"
   xmlns:cc="http://creativecommons.org/ns#"
   xmlns:dc="http://purl.org/dc/elements/1.1/">
  <defs
     id="defs4119">
    <linearGradient
       id="linearGradient3688-166-749">
      <stop
         id="stop2883"
         style="stop-color:#181818;stop-opacity:1"
         offset="0" />
      <stop
         id="stop2885"
         style="stop-color:#181818;stop-opacity:0"
         offset="1" />
    </linearGradient>
    <linearGradient
       id="linearGradient3702-501-757">
      <stop
         id="stop2895"
         style="stop-color:#181818;stop-opacity:0"
         offset="0" />
      <stop
         id="stop2897"
         style="stop-color:#181818;stop-opacity:1"
         offset="0.5" />
      <stop
         id="stop2899"
         style="stop-color:#181818;stop-opacity:0"
         offset="1" />
    </linearGradient>
    <filter
       color-interpolation-filters="sRGB"
       id="filter3831"
       x="-0.076499999"
       y="-0.067999999"
       width="1.153"
       height="1.136">
      <feGaussianBlur
         stdDeviation="0.6375"
         id="feGaussianBlur3833" />
    </filter>
    <clipPath
       id="clipPath3823">
      <path
         d="M 108.8125,58 C 107.25437,58 106,59.254375 106,60.8125 l 0,24.375 C 106,86.745625 107.25437,88 108.8125,88 l 24.375,0 C 134.74562,88 136,86.745625 136,85.1875 l 0,-24.375 C 136,59.254375 134.74562,58 133.1875,58 l -24.375,0 z m 7.1875,4.5 10,0 0,8.75 5,0 -10,13.75 -10,-13.75 5,0 0,-8.75 z"
         id="path3825"
         style="fill:#ffffff;fill-opacity:1;stroke:none" />
    </clipPath>
    <linearGradient
       x1="65.262688"
       y1="64.205269"
       x2="65.262688"
       y2="50.068527"
       id="linearGradient3812"
       xlink:href="#linearGradient5010"
       gradientUnits="userSpaceOnUse"
       gradientTransform="matrix(0.625,0,0,0.625,78.5,32.25)" />
    <filter
       color-interpolation-filters="sRGB"
       id="filter3806"
       x="-0.096000004"
       y="-0.096000004"
       width="1.192"
       height="1.192">
      <feGaussianBlur
         stdDeviation="1.2"
         id="feGaussianBlur3808" />
    </filter>
    <linearGradient
       x1="70"
       y1="54"
       x2="70"
       y2="75.095024"
       id="linearGradient3788"
       xlink:href="#linearGradient3737"
       gradientUnits="userSpaceOnUse"
       gradientTransform="translate(0,4)" />
    <linearGradient
       x1="56"
       y1="72"
       x2="88"
       y2="72"
       id="linearGradient3773"
       xlink:href="#linearGradient3778"
       gradientUnits="userSpaceOnUse"
       gradientTransform="matrix(0.9375,0,0,0.9375,-140.5,3.5)" />
    <linearGradient
       x1="65.262688"
       y1="64.205269"
       x2="65.262688"
       y2="50.068527"
       id="linearGradient3832"
       xlink:href="#linearGradient3737"
       gradientUnits="userSpaceOnUse"
       gradientTransform="matrix(0.625,0,0,0.625,28.5,31.25)" />
    <filter
       color-interpolation-filters="sRGB"
       id="filter3174"
       x="-0.047720931"
       y="-0.047172415"
       width="1.0954419"
       height="1.0943448">
      <feGaussianBlur
         stdDeviation="1.71"
         id="feGaussianBlur3176" />
    </filter>
    <linearGradient
       id="linearGradient3737">
      <stop
         id="stop3739"
         style="stop-color:#ffffff;stop-opacity:1"
         offset="0" />
      <stop
         id="stop3741"
         style="stop-color:#ffffff;stop-opacity:0"
         offset="1" />
    </linearGradient>
    <linearGradient
       x1="45.447727"
       y1="92.539597"
       x2="45.447727"
       y2="7.0165396"
       id="ButtonShadow"
       gradientUnits="userSpaceOnUse"
       gradientTransform="scale(1.0058652,0.994169)">
      <stop
         id="stop3750"
         style="stop-color:#000000;stop-opacity:1"
         offset="0" />
      <stop
         id="stop3752"
         style="stop-color:#000000;stop-opacity:0.58823532"
         offset="1" />
    </linearGradient>
    <linearGradient
       id="linearGradient5010">
      <stop
         id="stop5012"
         style="stop-color:#000000;stop-opacity:1"
         offset="0" />
      <stop
         id="stop5014"
         style="stop-color:#000000;stop-opacity:0"
         offset="1" />
    </linearGradient>
    <linearGradient
       id="linearGradient3778">
      <stop
         id="stop3780"
         style="stop-color:#499119;stop-opacity:1"
         offset="0" />
      <stop
         id="stop3782"
         style="stop-color:#8fd625;stop-opacity:1"
         offset="1" />
    </linearGradient>
    <linearGradient
       id="linearGradient149777">
      <stop
         style="stop-color:#fafafa;stop-opacity:1"
         offset="0"
         id="stop149769" />
      <stop
         style="stop-color:#abacae;stop-opacity:1"
         offset="0.42301154"
         id="stop149771" />
      <stop
         style="stop-color:#d4d4d4;stop-opacity:1"
         offset="0.7009123"
         id="stop149773" />
      <stop
         style="stop-color:#7e8087;stop-opacity:1"
         offset="1"
         id="stop149775" />
    </linearGradient>
    <linearGradient
       id="linearGradient1201">
      <stop
         id="stop1193"
         style="stop-color:#ffffff;stop-opacity:1"
         offset="0" />
      <stop
         id="stop1195"
         style="stop-color:#ffffff;stop-opacity:0.23529412"
         offset="0.06781636" />
      <stop
         id="stop1197"
         style="stop-color:#ffffff;stop-opacity:0.15686275"
         offset="0.94694352" />
      <stop
         id="stop1199"
         style="stop-color:#ffffff;stop-opacity:0.39215687"
         offset="1" />
    </linearGradient>
    <radialGradient
       cx="4.9929786"
       cy="43.5"
       r="2.5"
       fx="4.9929786"
       fy="43.5"
       id="radialGradient3013-6-3"
       xlink:href="#linearGradient3688-166-749"
       gradientUnits="userSpaceOnUse"
       gradientTransform="matrix(2.003784,0,0,0.89999994,29.98813,4.8500025)" />
    <radialGradient
       cx="4.9929786"
       cy="43.5"
       r="2.5"
       fx="4.9929786"
       fy="43.5"
       id="radialGradient3015-1-5"
       xlink:href="#linearGradient3688-166-749"
       gradientUnits="userSpaceOnUse"
       gradientTransform="matrix(2.003784,0,0,0.89999994,-18.01187,-83.149997)" />
    <linearGradient
       xlink:href="#linearGradient3702-501-757"
       id="linearGradient1191-1-3"
       gradientUnits="userSpaceOnUse"
       x1="25.058096"
       y1="47.027729"
       x2="25.058096"
       y2="39.999443"
       gradientTransform="matrix(1.1428571,0,0,0.6428571,-3.428569,16.035716)" />
    <linearGradient
       xlink:href="#linearGradient55160-3"
       id="linearGradient856-2"
       x1="23.528315"
       y1="6.08318"
       x2="23.528315"
       y2="44.23307"
       gradientUnits="userSpaceOnUse" />
    <linearGradient
       xlink:href="#linearGradient149777"
       id="linearGradient2763-7-1"
       gradientUnits="userSpaceOnUse"
       gradientTransform="matrix(0.70000045,0,0,0.70000045,-36.200037,-108.0001)"
       x1="74.881271"
       y1="172.83885"
       x2="97.295143"
       y2="207.14944"
       spreadMethod="reflect" />
    <linearGradient
       xlink:href="#linearGradient149777"
       id="linearGradient811"
       gradientUnits="userSpaceOnUse"
       gradientTransform="matrix(0.70000045,0,0,-0.70000045,-56.225948,174.52016)"
       x1="74.881271"
       y1="172.83885"
       x2="97.295143"
       y2="207.14944"
       spreadMethod="reflect" />
    <linearGradient
       xlink:href="#linearGradient149777"
       id="linearGradient864"
       gradientUnits="userSpaceOnUse"
       gradientTransform="matrix(-0.70000045,0,0,-0.70000045,104.17413,174.52016)"
       x1="74.881271"
       y1="172.83885"
       x2="97.295143"
       y2="207.14944"
       spreadMethod="reflect" />
    <linearGradient
       x1="38.999996"
       y1="5.9999938"
       x2="38.999996"
       y2="41.945408"
       id="linearGradient3058-5-8-4"
       xlink:href="#linearGradient1201"
       gradientUnits="userSpaceOnUse"
       gradientTransform="translate(4e-6,1.0000062)" />
    <linearGradient
       id="linearGradient55160-3">
      <stop
         style="stop-color:#4d4d4d;stop-opacity:1"
         offset="0"
         id="stop55156-5" />
      <stop
         style="stop-color:#1a1a1a;stop-opacity:1"
         offset="1"
         id="stop55158-6" />
    </linearGradient>
  </defs>
  <metadata
     id="metadata4122">
    <rdf:RDF>
      <cc:Work
         rdf:about="">
        <dc:format>image/svg+xml</dc:format>
        <dc:type
           rdf:resource="http://purl.org/dc/dcmitype/StillImage" />
      </cc:Work>
    </rdf:RDF>
  </metadata>
  <g
     transform="translate(-135.85714,-31.05041)"
     id="layer2"
     style="display:none">
    <path
       d="M 11,7 48,5 85,7 c 3.324,0 6,2.676 6,6 l 0,73 c 0,3.324 -2.676,6 -6,6 L 11,92 C 7.676,92 5,89.324 5,86 L 5,13 C 5,9.676 7.676,7 11,7 z"
       id="rect3745"
       style="opacity:0.9;fill:url(#ButtonShadow);fill-opacity:1;fill-rule:nonzero;stroke:none;filter:url(#filter3174)" />
  </g>
  <g
     transform="translate(-135.85714,-31.05041)"
     id="layer4"
     style="display:none">
    <rect
       width="30"
       height="30"
       rx="2.8125"
       ry="2.8125"
       x="-86"
       y="56"
       transform="matrix(0,-1,1,0,0,4)"
       id="rect3790"
       style="opacity:0.6;fill:#000000;fill-opacity:1;stroke:none;filter:url(#filter3806)" />
    <rect
       width="30"
       height="30"
       rx="2.8125"
       ry="2.8125"
       x="-88"
       y="56"
       transform="matrix(0,-1,1,0,0,0)"
       id="rect2993"
       style="fill:url(#linearGradient3773);fill-opacity:1;stroke:none" />
    <path
       d="M 58.8125,58 C 57.254375,58 56,59.254375 56,60.8125 l 0,24.375 c 0,0.873066 0.410816,1.641163 1.03125,2.15625 C 57.02841,87.289908 57,87.242129 57,87.1875 l 0,-24.375 C 57,61.254375 58.17075,60 59.625,60 l 22.75,0 C 83.82925,60 85,61.254375 85,62.8125 l 0,24.375 c 0,0.05463 -0.02841,0.102408 -0.03125,0.15625 C 85.589184,86.828663 86,86.060566 86,85.1875 l 0,-24.375 C 86,59.254375 84.745625,58 83.1875,58 l -24.375,0 z"
       id="rect3775"
       style="opacity:0.5;fill:url(#linearGradient3788);fill-opacity:1;stroke:none" />
    <path
       d="m 116,63.5 0,8.75 -5,0 10,13.75 10,-13.75 -5,0 0,-8.75 -10,0 z"
       transform="translate(-50,0)"
       clip-path="url(#clipPath3823)"
       id="path3810"
       style="opacity:0.6;fill:url(#linearGradient3812);fill-opacity:1;fill-rule:nonzero;stroke:none;display:inline;filter:url(#filter3831)" />
    <path
       d="m 66,62.5 0,8.75 -5,0 10,13.75 10,-13.75 -5,0 0,-8.75 -10,0 z"
       id="path4278"
       style="fill:url(#linearGradient3832);fill-opacity:1;fill-rule:nonzero;stroke:none;display:inline" />
  </g>
  <rect
     style="opacity:0.6;fill:url(#radialGradient3013-6-3);fill-opacity:1;stroke:none;stroke-width:0.862764"
     id="rect2801-3-7-9"
     y="41.75"
     x="40"
     height="4.4999995"
     width="5" />
  <rect
     style="opacity:0.6;fill:url(#radialGradient3015-1-5);fill-opacity:1;stroke:none;stroke-width:0.862764"
     id="rect3696-6-3-3"
     transform="scale(-1)"
     y="-46.25"
     x="-8"
     height="4.4999995"
     width="5" />
  <rect
     style="opacity:0.6;fill:url(#linearGradient1191-1-3);fill-opacity:1;stroke:none;stroke-width:0.862764"
     id="rect3700-4-6-6"
     y="41.75"
     x="8"
     height="4.5"
     width="32" />
  <rect
     style="color:#000000;display:inline;overflow:visible;visibility:visible;fill:url(#linearGradient856-2);fill-opacity:1;fill-rule:nonzero;stroke:#000000;stroke-width:1;stroke-opacity:0.5;marker:none;enable-background:accumulate"
     id="rect5505-21-1"
     y="5.4999952"
     x="4.5000153"
     ry="4"
     rx="4"
     height="39"
     width="39" />
  <path
     id="rect48996-8-9-6-9-9-3-10-9"
     style="font-variation-settings:normal;fill:#000000;fill-opacity:1;stroke:none;stroke-width:0.999997;stroke-linecap:round;stroke-linejoin:round;stroke-miterlimit:4;stroke-dasharray:none;stroke-dashoffset:0;stroke-opacity:0.5;stop-color:#000000;opacity:0.3;vector-effect:none;-inkscape-stroke:none;stop-opacity:1"
     d="M 23.300781 12 C 22.912983 12 22.599609 13.249575 22.599609 14.800781 L 22.599609 14.900391 A 11.200007 11.200007 0 0 0 21.044922 15.210938 L 21.007812 15.117188 C 20.414194 13.68407 19.647342 12.650438 19.289062 12.798828 L 17.996094 13.332031 C 17.637814 13.480431 17.826312 14.754382 18.419922 16.1875 L 18.464844 16.294922 A 11.200007 11.200007 0 0 0 17.152344 17.171875 L 17.070312 17.089844 C 15.973436 15.992976 14.869923 15.331249 14.595703 15.605469 L 13.605469 16.595703 C 13.331259 16.869923 13.992976 17.973456 15.089844 19.070312 L 15.171875 19.152344 A 11.200007 11.200007 0 0 0 14.294922 20.464844 L 14.1875 20.419922 C 12.754372 19.826302 11.482394 19.637804 11.333984 19.996094 L 10.798828 21.289062 C 10.650428 21.647342 11.68407 22.414194 13.117188 23.007812 L 13.210938 23.044922 A 11.200007 11.200007 0 0 0 12.900391 24.599609 L 12.800781 24.599609 C 11.249585 24.599609 10 24.912983 10 25.300781 L 10 26.699219 C 10 27.087017 11.249585 27.400391 12.800781 27.400391 L 12.900391 27.400391 A 11.200007 11.200007 0 0 0 13.210938 28.955078 L 13.117188 28.992188 C 11.68408 29.585806 10.650428 30.352658 10.798828 30.710938 L 11.332031 32.003906 C 11.480431 32.362196 12.754392 32.173698 14.1875 31.580078 L 14.294922 31.535156 A 11.200007 11.200007 0 0 0 15.171875 32.847656 L 15.089844 32.929688 C 14.730201 33.289333 14.424267 33.646906 14.175781 33.978516 C 14.412636 33.565357 14.499025 33.24512 14.369141 33.115234 L 13.378906 32.125 C 13.104699 31.85078 12.001144 32.512518 10.904297 33.609375 L 10.822266 33.691406 C 10.405933 33.368587 9.9673455 33.075538 9.5097656 32.814453 L 9.5527344 32.707031 C 10.146352 31.273917 10.336795 30.001913 9.9785156 29.853516 L 8.6855469 29.318359 C 8.3272578 29.169972 7.5604151 30.203602 6.9667969 31.636719 L 6.9277344 31.730469 C 6.4181333 31.590449 5.8992557 31.486674 5.375 31.419922 L 5.375 31.320312 C 5.375 29.769108 5.0616269 28.519531 4.6738281 28.519531 L 4.5 28.519531 L 4.5 33.457031 C 7.299238 33.612771 9.8706581 35.049424 11.470703 37.351562 L 12.169922 38.5625 C 12.767294 39.796183 13.078417 41.14883 13.080078 42.519531 C 13.079599 43.187026 12.998784 43.850642 12.853516 44.5 L 14.988281 44.5 C 15.023095 44.307059 15.057381 44.114539 15.082031 43.919922 L 15.173828 43.919922 C 16.725025 43.919922 17.974609 43.608503 17.974609 43.220703 L 17.974609 41.820312 C 17.974609 41.432515 16.725025 41.119141 15.173828 41.119141 L 15.074219 41.119141 C 15.007469 40.594884 14.903692 40.076009 14.763672 39.566406 L 14.857422 39.527344 C 16.290516 38.933714 17.324181 38.166871 17.175781 37.808594 L 16.640625 36.515625 C 16.492225 36.157335 15.220216 36.347779 13.787109 36.941406 L 13.679688 36.984375 C 13.418603 36.526794 13.125557 36.088205 12.802734 35.671875 L 12.884766 35.589844 C 13.246411 35.228194 13.553644 34.86829 13.802734 34.535156 C 13.56222 34.952248 13.474749 35.273577 13.605469 35.404297 L 14.595703 36.394531 C 14.869923 36.668751 15.973446 36.007014 17.070312 34.910156 L 17.152344 34.828125 A 11.200007 11.200007 0 0 0 18.464844 35.705078 L 18.419922 35.8125 C 17.826302 37.245618 17.637824 38.517606 17.996094 38.666016 L 19.289062 39.201172 C 19.647352 39.349572 20.414194 38.31592 21.007812 36.882812 L 21.044922 36.789062 A 11.200007 11.200007 0 0 0 22.599609 37.099609 L 22.599609 37.199219 C 22.599611 38.750422 22.912983 40 23.300781 40 L 24.699219 40 C 25.087017 40 25.400391 38.750425 25.400391 37.199219 L 25.400391 37.099609 A 11.200007 11.200007 0 0 0 26.955078 36.789062 L 26.992188 36.882812 C 27.585806 38.31593 28.352648 39.349562 28.710938 39.201172 L 30.003906 38.667969 C 30.362186 38.519569 30.173698 37.245618 29.580078 35.8125 L 29.535156 35.705078 A 11.200007 11.200007 0 0 0 30.847656 34.828125 L 30.929688 34.910156 C 32.026534 36.007014 33.130087 36.668751 33.404297 36.394531 L 34.394531 35.404297 C 34.500722 35.298106 34.463869 35.066135 34.318359 34.759766 C 34.533826 35.027591 34.783446 35.308834 35.064453 35.589844 L 35.146484 35.671875 C 34.822992 36.088145 34.529292 36.526735 34.267578 36.984375 L 34.162109 36.941406 C 32.729006 36.347781 31.455038 36.157335 31.306641 36.515625 L 30.773438 37.808594 C 30.625038 38.166871 31.6587 38.933714 33.091797 39.527344 L 33.183594 39.566406 C 33.043574 40.076009 32.939799 40.594884 32.873047 41.119141 L 32.773438 41.119141 C 31.222241 41.119141 29.974609 41.432515 29.974609 41.820312 L 29.974609 43.220703 C 29.974609 43.608503 31.222241 43.919922 32.773438 43.919922 L 32.865234 43.919922 C 32.889885 44.114539 32.92417 44.307059 32.958984 44.5 L 35.095703 44.5 C 34.950435 43.850642 34.86962 43.187026 34.869141 42.519531 C 34.870241 41.148981 35.180645 39.796341 35.777344 38.5625 L 36.478516 37.351562 C 38.088494 35.034295 40.68188 33.594406 43.5 33.453125 L 43.5 28.519531 L 43.273438 28.519531 C 42.885638 28.519531 42.574219 29.769108 42.574219 31.320312 L 42.574219 31.419922 C 42.049305 31.486582 41.529774 31.590359 41.019531 31.730469 L 40.980469 31.636719 C 40.386847 30.203602 39.621962 29.169972 39.263672 29.318359 L 37.96875 29.853516 C 37.61047 30.001913 37.800914 31.273917 38.394531 32.707031 L 38.4375 32.814453 C 37.979919 33.075538 37.54133 33.368585 37.125 33.691406 L 37.042969 33.609375 C 35.946116 32.512516 34.844522 31.85078 34.570312 32.125 L 33.580078 33.115234 C 33.474639 33.220674 33.511457 33.450773 33.654297 33.753906 C 33.439635 33.487509 33.189496 33.209029 32.910156 32.929688 L 32.828125 32.847656 A 11.200007 11.200007 0 0 0 33.705078 31.535156 L 33.8125 31.580078 C 35.245608 32.173708 36.517616 32.362196 36.666016 32.003906 L 37.201172 30.710938 C 37.349572 30.352658 36.31591 29.585816 34.882812 28.992188 L 34.789062 28.955078 A 11.200007 11.200007 0 0 0 35.099609 27.400391 L 35.199219 27.400391 C 36.750413 27.400391 38 27.087017 38 26.699219 L 38 25.300781 C 38 24.912983 36.750415 24.599609 35.199219 24.599609 L 35.109375 24.599609 A 11.200007 11.200007 0 0 0 34.798828 23.042969 L 34.882812 23.007812 C 36.31592 22.414194 37.349562 21.647342 37.201172 21.289062 L 36.667969 19.996094 C 36.519569 19.637814 35.245608 19.826302 33.8125 20.419922 L 33.728516 20.455078 A 11.200007 11.200007 0 0 0 32.845703 19.134766 L 32.910156 19.070312 C 34.007014 17.973456 34.668751 16.869923 34.394531 16.595703 L 33.404297 15.605469 C 33.130077 15.331249 32.026554 15.992986 30.929688 17.089844 L 30.865234 17.154297 A 11.200007 11.200007 0 0 0 29.544922 16.271484 L 29.580078 16.1875 C 30.173698 14.754382 30.362186 13.482384 30.003906 13.333984 L 28.710938 12.798828 C 28.352658 12.650428 27.585806 13.68408 26.992188 15.117188 L 26.957031 15.201172 A 11.200007 11.200007 0 0 0 25.400391 14.892578 L 25.400391 14.800781 C 25.400385 13.249586 25.087017 12 24.699219 12 L 23.300781 12 z M 24.699219 16.923828 A 9.1049394 9.1049394 0 0 1 33.105469 26 A 9.1049394 9.1049394 0 0 1 32.197266 29.957031 L 26.701172 26.783203 A 2.8134146 2.8134146 0 0 0 26.814453 26 A 2.8134146 2.8134146 0 0 0 24.699219 23.275391 L 24.699219 16.923828 z M 23.300781 16.955078 L 23.300781 23.28125 A 2.8134146 2.8134146 0 0 0 21.185547 26 A 2.8134146 2.8134146 0 0 0 21.298828 26.783203 L 15.830078 29.941406 A 9.1049394 9.1049394 0 0 1 14.894531 26 A 9.1049394 9.1049394 0 0 1 23.300781 16.955078 z M 24 24.599609 A 1.4000009 1.4000009 0 0 1 25.400391 26 A 1.4000009 1.4000009 0 0 1 24 27.400391 A 1.4000009 1.4000009 0 0 1 22.599609 26 A 1.4000009 1.4000009 0 0 1 24 24.599609 z M 22.015625 27.984375 A 2.8134146 2.8134146 0 0 0 24 28.814453 A 2.8134146 2.8134146 0 0 0 25.984375 27.984375 L 31.496094 31.167969 A 9.1049394 9.1049394 0 0 1 24 35.105469 A 9.1049394 9.1049394 0 0 1 16.533203 31.152344 L 22.015625 27.984375 z " />
  <path
     id="rect48996-8-9-6-9-9-3-10-9-8"
     style="font-variation-settings:normal;opacity:0.15;vector-effect:none;fill:#000000;fill-opacity:1;stroke:none;stroke-width:0.999997;stroke-linecap:round;stroke-linejoin:round;stroke-miterlimit:4;stroke-dasharray:none;stroke-dashoffset:0;stroke-opacity:0.5;-inkscape-stroke:none;stop-color:#000000;stop-opacity:1"
     d="M 24.037109 10.994141 C 23.729024 10.995259 23.420539 11.006738 23.115234 11.017578 C 21.813002 11.349524 21.734775 12.956467 21.625 14.058594 C 21.106376 13.101324 20.463496 11.713274 19.175781 11.802734 C 18.346234 12.153055 17.127559 12.295304 16.873047 13.322266 C 16.707261 14.185713 16.972957 15.059659 17.234375 15.876953 C 16.388111 15.184985 15.2535 14.145574 14.095703 14.736328 C 13.44801 15.3965 12.318431 16.044384 12.585938 17.132812 C 12.801422 17.941487 13.341411 18.611252 13.876953 19.234375 C 12.831374 18.923837 11.394622 18.397663 10.546875 19.375 C 10.210397 20.208803 9.4513877 21.171974 9.9960938 22.076172 C 10.490864 22.802521 11.295074 23.233536 12.058594 23.625 C 10.970636 23.736377 9.4287261 23.802381 9.03125 25.042969 C 9.02946 25.989197 8.7008844 27.30915 9.7382812 27.845703 C 10.447967 28.22437 11.26842 28.314541 12.058594 28.375 C 11.589301 28.603157 11.135379 28.865495 10.716797 29.177734 C 10.12998 28.758823 9.3957389 28.490619 8.6992188 28.320312 C 7.4635961 28.306285 6.8654677 29.653154 6.3496094 30.566406 C 6.2364675 29.481596 6.1687989 27.946141 4.9316406 27.550781 C 4.7950835 27.52768 4.6470299 27.529796 4.5 27.554688 L 4.5 34.439453 C 4.6457098 34.508569 4.8097058 34.541222 5.0058594 34.509766 C 8.4041673 34.876773 11.333434 37.641424 11.931641 41 C 12.185751 42.15878 12.078568 43.354042 11.828125 44.5 L 17.960938 44.5 C 18.472186 44.279643 18.879982 43.922701 18.966797 43.306641 C 18.955837 42.385895 19.226955 41.109368 18.175781 40.638672 C 17.48047 40.289836 16.683137 40.20954 15.925781 40.138672 C 16.392341 39.913468 16.842079 39.651391 17.257812 39.341797 C 17.84463 39.760708 18.57887 40.028913 19.275391 40.199219 C 20.511339 40.208319 21.114049 38.872421 21.625 37.941406 C 21.736377 39.029364 21.802381 40.571273 23.042969 40.96875 C 23.989197 40.97055 25.30915 41.299116 25.845703 40.261719 C 26.22437 39.552033 26.314541 38.73158 26.375 37.941406 C 26.893624 38.898676 27.536504 40.286726 28.824219 40.197266 C 29.468209 39.970021 30.165201 39.764876 30.720703 39.363281 C 31.12424 39.667113 31.58066 39.915115 32.019531 40.144531 C 30.935249 40.257772 29.400869 40.326035 29.005859 41.5625 C 29.003959 42.508712 28.674135 43.828929 29.712891 44.367188 C 29.796992 44.416592 29.88521 44.461358 29.974609 44.5 L 36.109375 44.5 C 35.273912 41.270068 36.665459 37.586209 39.496094 35.78125 C 40.682225 34.995285 42.080762 34.541293 43.5 34.455078 L 43.5 27.527344 C 43.395945 27.514555 43.288402 27.51064 43.173828 27.529297 C 41.882969 27.735498 41.726651 29.294408 41.617188 30.349609 C 41.564188 30.83242 41.179996 29.582882 40.927734 29.423828 C 40.479095 28.636139 39.487539 27.966357 38.603516 28.509766 C 38.136562 28.673242 37.582631 28.964292 37.195312 29.111328 C 36.965151 28.831478 35.792749 28.434749 36.140625 28.359375 C 37.186195 28.248214 38.686334 28.11777 38.982422 26.884766 C 38.975522 25.936952 39.27883 24.611547 38.201172 24.119141 C 37.501424 23.773356 36.710399 23.681674 35.941406 23.625 C 36.898676 23.106376 38.286726 22.463496 38.197266 21.175781 C 37.846945 20.346234 37.704696 19.127559 36.677734 18.873047 C 35.814287 18.707261 34.940341 18.972957 34.123047 19.234375 C 34.815015 18.388111 35.854426 17.2535 35.263672 16.095703 C 34.6035 15.44801 33.955616 14.318431 32.867188 14.585938 C 32.058513 14.801422 31.388748 15.341411 30.765625 15.876953 C 31.076163 14.831374 31.602337 13.394622 30.625 12.546875 C 29.791197 12.210397 28.828026 11.451387 27.923828 11.996094 C 27.197479 12.490864 26.766464 13.295074 26.375 14.058594 C 26.263623 12.970636 26.197619 11.428727 24.957031 11.03125 C 24.652883 11.002265 24.345195 10.993022 24.037109 10.994141 z M 25.699219 18.087891 L 25.798828 18.103516 L 25.814453 18.105469 C 28.841171 18.798337 31.354279 21.336554 31.923828 24.400391 C 32.216001 25.758201 32.108587 27.190594 31.693359 28.511719 L 27.789062 26.257812 C 27.917574 24.762692 27.042995 23.257836 25.699219 22.599609 L 25.699219 18.087891 z M 22.300781 18.119141 L 22.300781 22.605469 C 20.957449 23.26178 20.089178 24.765815 20.210938 26.257812 L 16.328125 28.5 C 15.260296 25.46522 16.319242 21.879498 18.792969 19.84375 C 19.799571 18.995778 21.017609 18.407639 22.300781 18.119141 z M 24.091797 25.611328 C 24.69885 25.734328 24.266258 26.723522 23.769531 26.296875 C 23.439199 26.050571 23.708551 25.553367 24.091797 25.611328 z M 21.933594 29.185547 L 21.984375 29.224609 C 23.209734 29.993001 24.859728 29.988189 26.066406 29.185547 L 29.980469 31.447266 C 27.942206 33.71854 24.563757 34.668018 21.650391 33.724609 C 20.275619 33.296187 19.016561 32.496845 18.046875 31.431641 L 21.933594 29.185547 z " />
  <path
     id="rect48996-8-9-6-9-9-3-10"
     style="font-variation-settings:normal;fill:url(#linearGradient2763-7-1);fill-opacity:1;stroke:none;stroke-width:0.999994;stroke-linecap:round;stroke-linejoin:round;stroke-miterlimit:4;stroke-dasharray:none;stroke-dashoffset:0;stroke-opacity:0.5;stop-color:#000000"
     d="m 23.3,10.99998 c -0.3878,0 -0.7,1.2488 -0.7,2.80001 v 0.0998 a 11.200007,11.200007 0 0 0 -1.55449,0.31035 l -0.0383,-0.093 c -0.59362,-1.43312 -1.36028,-2.46715 -1.71856,-2.31876 l -1.29336,0.53458 c -0.35828,0.1484 -0.16842,1.42157 0.42519,2.85469 l 0.0438,0.10664 a 11.200007,11.200007 0 0 0 -1.31249,0.87773 l -0.082,-0.082 c -1.09688,-1.09687 -2.2004,-1.75899 -2.47462,-1.48477 l -0.98985,0.98984 c -0.27421,0.27422 0.3879,1.37775 1.48477,2.47461 l 0.082,0.082 a 11.200007,11.200007 0 0 0 -0.87774,1.3125 l -0.10664,-0.0438 c -1.43313,-0.59362 -2.70629,-0.78348 -2.8547,-0.42519 l -0.53457,1.29336 c -0.1484,0.35828 0.88564,1.12493 2.31876,1.71855 l 0.093,0.0383 A 11.200007,11.200007 0 0 0 12.8998,23.6 H 12.8 c -1.5512,0 -2.8,0.3122 -2.8,0.7 v 1.4 c 0,0.3878 1.2488,0.7 2.8,0.7 h 0.0998 a 11.200007,11.200007 0 0 0 0.31035,1.55449 l -0.093,0.0383 C 11.68404,28.58641 10.65,29.35307 10.7984,29.71135 l 0.53458,1.29335 c 0.1484,0.35829 1.42157,0.16843 2.85468,-0.42519 l 0.10665,-0.0438 a 11.200007,11.200007 0 0 0 0.87773,1.3125 l -0.082,0.082 c -1.09686,1.09687 -1.75898,2.2004 -1.48477,2.47461 l 0.98985,0.98985 c 0.27422,0.27422 1.37774,-0.38791 2.47461,-1.48477 l 0.082,-0.082 a 11.200007,11.200007 0 0 0 1.3125,0.87773 l -0.0438,0.10665 c -0.59362,1.43312 -0.78347,2.70628 -0.4252,2.85469 l 1.29336,0.53457 c 0.35829,0.1484 1.12494,-0.88564 1.71856,-2.31875 l 0.0383,-0.093 a 11.200007,11.200007 0 0 0 1.55449,0.31034 V 36.2 c 0,1.55121 0.3122,2.80001 0.7,2.80001 h 1.4 c 0.3878,0 0.7,-1.2488 0.7,-2.80001 v -0.0998 a 11.200007,11.200007 0 0 0 1.55449,-0.31035 l 0.0383,0.093 c 0.59362,1.43312 1.36027,2.46715 1.71856,2.31876 l 1.29336,-0.53458 c 0.35828,-0.1484 0.16842,-1.42157 -0.4252,-2.85469 l -0.0438,-0.10664 a 11.200007,11.200007 0 0 0 1.3125,-0.87773 l 0.082,0.082 c 1.09685,1.09686 2.20039,1.75898 2.4746,1.48476 l 0.98985,-0.98984 c 0.27422,-0.27422 -0.3879,-1.37775 -1.48476,-2.47462 l -0.082,-0.082 a 11.200007,11.200007 0 0 0 0.87773,-1.3125 l 0.10665,0.0438 c 1.43311,0.59363 2.70628,0.78349 2.85468,0.4252 l 0.53457,-1.29336 c 0.1484,-0.35828 -0.88565,-1.12493 -2.31875,-1.71856 l -0.093,-0.0383 A 11.200007,11.200007 0 0 0 35.1002,26.4 H 35.2 c 1.5512,0 2.8,-0.3122 2.8,-0.7 v -1.4 c 0,-0.3878 -1.2488,-0.7 -2.8,-0.7 h -0.0916 a 11.200007,11.200007 0 0 0 -0.31035,-1.55723 l 0.0848,-0.0356 C 36.31596,21.41355 37.35,20.64689 37.20161,20.28861 L 36.66703,18.9953 c -0.1484,-0.35828 -1.42157,-0.16843 -2.85468,0.42519 l -0.0834,0.0342 a 11.200007,11.200007 0 0 0 -0.88322,-1.3207 l 0.0643,-0.0643 c 1.09686,-1.09686 1.75898,-2.20039 1.48476,-2.47461 l -0.98986,-0.98984 c -0.27422,-0.27422 -1.37774,0.3879 -2.47461,1.48476 l -0.0643,0.0643 a 11.200007,11.200007 0 0 0 -1.3207,-0.8832 l 0.0342,-0.0834 c 0.59362,-1.43312 0.78348,-2.70629 0.4252,-2.85469 l -1.29336,-0.53458 c -0.35828,-0.1484 -1.12493,0.88564 -1.71855,2.31875 l -0.0356,0.0848 a 11.200007,11.200007 0 0 0 -1.5572,-0.31033 v -0.0916 c 0,-1.5512 -0.3122,-2.8 -0.7,-2.8 z m 1.4,4.92462 a 9.1049394,9.1049394 0 0 1 8.40547,9.07539 9.1049394,9.1049394 0 0 1 -0.90918,3.95664 L 26.70156,25.78339 A 2.8134146,2.8134146 0 0 0 26.81367,24.99999 2.8134146,2.8134146 0 0 0 24.7,22.27518 Z m -1.4,0.0314 v 6.32461 a 2.8134146,2.8134146 0 0 0 -2.11367,2.71935 2.8134146,2.8134146 0 0 0 0.1121,0.7834 l -5.46875,3.15821 A 9.1049394,9.1049394 0 0 1 14.89453,24.99999 9.1049394,9.1049394 0 0 1 23.3,15.95604 Z m 0.7,7.64396 a 1.4000009,1.4000009 0 0 1 1.4,1.4 1.4000009,1.4000009 0 0 1 -1.4,1.4 1.4000009,1.4000009 0 0 1 -1.4,-1.4 1.4000009,1.4000009 0 0 1 1.4,-1.4 z m -1.98379,3.38516 A 2.8134146,2.8134146 0 0 0 24,27.81363 2.8134146,2.8134146 0 0 0 25.98379,26.98512 l 5.5125,3.18281 A 9.1049394,9.1049394 0 0 1 24,34.10543 9.1049394,9.1049394 0 0 1 16.53378,30.15153 Z" />
  <path
     id="rect48996-8-9-6-9-9-3-1"
     style="font-variation-settings:normal;fill:url(#linearGradient811);fill-opacity:1;stroke:none;stroke-width:0.999994;stroke-linecap:round;stroke-linejoin:round;stroke-miterlimit:4;stroke-dasharray:none;stroke-dashoffset:0;stroke-opacity:0.5;stop-color:#000000"
     d="m 4.5,27.519531 v 4.9375 c 2.7992436,0.15574 5.3706547,1.592387 6.970703,3.894531 l 0.699219,1.210938 c 0.597374,1.233685 0.908495,2.586326 0.910156,3.957031 -7.28e-4,1.014627 -0.171043,2.021996 -0.503906,2.980469 h 2.25 l -0.05469,-0.02344 c 0.140201,-0.510882 0.243977,-1.031068 0.310547,-1.55664 h 0.0918 c 1.551199,0 2.800781,-0.311419 2.800781,-0.699219 V 40.82031 c 0,-0.387799 -1.249582,-0.701171 -2.800781,-0.701171 h -0.09961 c -0.06675,-0.524257 -0.170527,-1.043132 -0.310547,-1.552735 l 0.09375,-0.03906 c 1.433098,-0.59363 2.466759,-1.360471 2.318359,-1.71875 l -0.535156,-1.292969 c -0.1484,-0.35829 -1.420407,-0.167848 -2.853516,0.425781 l -0.107421,0.04297 c -0.261085,-0.457581 -0.554131,-0.89617 -0.876954,-1.3125 l 0.08203,-0.08203 c 1.096859,-1.096869 1.758594,-2.20039 1.484375,-2.47461 L 13.378906,31.125 c -0.274209,-0.27422 -1.37776,0.387516 -2.474609,1.484375 l -0.08203,0.08203 C 10.405935,32.368583 9.9673463,32.075538 9.5097656,31.814453 l 0.042969,-0.107422 c 0.5936194,-1.433118 0.7840604,-2.705116 0.425781,-2.853515 L 8.6855469,28.318359 C 8.3272572,28.16997 7.5604163,29.2036 6.9667969,30.636719 l -0.039063,0.09375 C 6.4181313,30.590449 5.8992567,30.486674 5.375,30.419922 v -0.09961 c 0,-1.551208 -0.3133723,-2.800781 -0.7011719,-2.800781 z" />
  <path
     id="rect48996-8-9-6-9-9-3-1-0"
     style="font-variation-settings:normal;fill:url(#linearGradient864);fill-opacity:1;stroke:none;stroke-width:0.999994;stroke-linecap:round;stroke-linejoin:round;stroke-miterlimit:4;stroke-dasharray:none;stroke-dashoffset:0;stroke-opacity:0.5;stop-color:#000000"
     d="m 43.273438,27.519531 c -0.3878,0 -0.699219,1.249573 -0.699219,2.800781 v 0.09961 c -0.524914,0.06666 -1.044445,0.170437 -1.554688,0.310547 l -0.03906,-0.09375 C 40.386849,29.2036 39.621962,28.16997 39.263672,28.318359 l -1.294922,0.535157 c -0.35828,0.148399 -0.167838,1.420397 0.425781,2.853515 l 0.04297,0.107422 c -0.457581,0.261085 -0.89617,0.55413 -1.3125,0.876953 l -0.08203,-0.08203 C 35.94612,31.512516 34.844522,30.85078 34.570312,31.125 l -0.990234,0.990234 c -0.27422,0.27422 0.387516,1.377741 1.484375,2.47461 l 0.08203,0.08203 c -0.323494,0.41627 -0.617192,0.85486 -0.878906,1.3125 l -0.105469,-0.04297 C 32.729001,35.347777 31.45504,35.157335 31.306641,35.515625 l -0.533203,1.292969 c -0.1484,0.358279 0.88526,1.12512 2.318359,1.71875 l 0.0918,0.03906 c -0.14002,0.509603 -0.243795,1.028478 -0.310547,1.552735 h -0.09961 c -1.551199,0 -2.798829,0.313372 -2.798829,0.701171 v 1.400391 c 0,0.3878 1.24763,0.699219 2.798829,0.699219 h 0.0918 c 0.06657,0.525572 0.170346,1.045758 0.310547,1.55664 L 33.123047,44.5 h 2.25 c -0.332863,-0.958473 -0.503178,-1.965842 -0.503906,-2.980469 0.0011,-1.370554 0.311504,-2.723188 0.908203,-3.957031 l 0.701172,-1.210938 C 38.088498,34.034289 40.681874,32.594406 43.5,32.453125 v -4.933594 z" />
  <path
     id="rect48996-8-9-6-9-9-3-10-3"
     style="font-variation-settings:normal;fill:#ffffff;fill-opacity:1;stroke:none;stroke-width:0.999997;stroke-linecap:round;stroke-linejoin:round;stroke-miterlimit:4;stroke-dasharray:none;stroke-dashoffset:0;stroke-opacity:0.5;stop-color:#000000;opacity:0.3;vector-effect:none;-inkscape-stroke:none;stop-opacity:1"
     d="M 23.300781 11 C 22.912983 11 22.599609 12.249575 22.599609 13.800781 L 22.599609 13.900391 A 11.200007 11.200007 0 0 0 21.044922 14.210938 L 21.007812 14.117188 C 20.414194 12.68407 19.647342 11.650438 19.289062 11.798828 L 17.996094 12.332031 C 17.798433 12.413903 17.773373 12.844461 17.884766 13.449219 C 17.91325 13.39334 17.949169 13.351467 17.996094 13.332031 L 19.289062 12.798828 C 19.647342 12.650438 20.414194 13.68407 21.007812 15.117188 L 21.044922 15.210938 A 11.200007 11.200007 0 0 1 22.599609 14.900391 L 22.599609 14.800781 C 22.599609 13.249575 22.912983 12 23.300781 12 L 24.699219 12 C 25.087017 12 25.400385 13.249586 25.400391 14.800781 L 25.400391 14.892578 A 11.200007 11.200007 0 0 1 26.957031 15.201172 L 26.992188 15.117188 C 27.585806 13.68408 28.352658 12.650428 28.710938 12.798828 L 30.003906 13.333984 C 30.050929 13.353461 30.088681 13.393209 30.117188 13.449219 C 30.228262 12.845766 30.201409 12.41579 30.003906 12.333984 L 28.710938 11.798828 C 28.352658 11.650428 27.585806 12.68408 26.992188 14.117188 L 26.957031 14.201172 A 11.200007 11.200007 0 0 0 25.400391 13.892578 L 25.400391 13.800781 C 25.400391 12.249585 25.087017 11 24.699219 11 L 23.300781 11 z M 14.736328 14.544922 C 14.677768 14.550929 14.629981 14.571191 14.595703 14.605469 L 13.605469 15.595703 C 13.47962 15.721557 13.559277 16.027472 13.779297 16.421875 L 14.595703 15.605469 C 14.869923 15.331249 15.973436 15.992976 17.070312 17.089844 L 17.152344 17.171875 A 11.200007 11.200007 0 0 1 18.464844 16.294922 L 18.419922 16.1875 C 18.321507 15.949903 18.239562 15.720537 18.164062 15.496094 A 11.200007 11.200007 0 0 0 17.152344 16.171875 L 17.070312 16.089844 C 16.110545 15.130084 15.146249 14.502871 14.736328 14.544922 z M 33.263672 14.544922 C 32.853749 14.502872 31.889446 15.130093 30.929688 16.089844 L 30.865234 16.154297 A 11.200007 11.200007 0 0 0 29.84375 15.472656 C 29.766448 15.704274 29.681966 15.941522 29.580078 16.1875 L 29.544922 16.271484 A 11.200007 11.200007 0 0 1 30.865234 17.154297 L 30.929688 17.089844 C 32.026554 15.992986 33.130077 15.331249 33.404297 15.605469 L 34.220703 16.421875 C 34.440725 16.027472 34.520385 15.721557 34.394531 15.595703 L 33.404297 14.605469 C 33.370019 14.571191 33.322232 14.550929 33.263672 14.544922 z M 33.240234 18.724609 C 33.134804 18.839478 33.025858 18.954611 32.910156 19.070312 L 32.845703 19.134766 A 11.200007 11.200007 0 0 1 33.728516 20.455078 L 33.8125 20.419922 C 35.245608 19.826302 36.519569 19.637814 36.667969 19.996094 L 36.982422 20.755859 C 37.160788 20.570767 37.249885 20.406677 37.201172 20.289062 L 36.667969 18.996094 C 36.519569 18.637814 35.245608 18.826302 33.8125 19.419922 L 33.728516 19.455078 A 11.200007 11.200007 0 0 0 33.240234 18.724609 z M 14.777344 18.742188 A 11.200007 11.200007 0 0 0 14.294922 19.464844 L 14.1875 19.419922 C 12.754372 18.826302 11.482394 18.637804 11.333984 18.996094 L 10.798828 20.289062 C 10.749932 20.407111 10.839769 20.571864 11.019531 20.757812 L 11.333984 19.996094 C 11.482394 19.637804 12.754372 19.826302 14.1875 20.419922 L 14.294922 20.464844 A 11.200007 11.200007 0 0 1 15.171875 19.152344 L 15.089844 19.070312 C 14.980157 18.960627 14.877827 18.851171 14.777344 18.742188 z M 24.699219 22.275391 L 24.699219 23.275391 A 2.8134146 2.8134146 0 0 1 26.736328 25.535156 A 2.8134146 2.8134146 0 0 0 26.814453 25 A 2.8134146 2.8134146 0 0 0 24.699219 22.275391 z M 23.300781 22.28125 A 2.8134146 2.8134146 0 0 0 21.185547 25 A 2.8134146 2.8134146 0 0 0 21.263672 25.539062 A 2.8134146 2.8134146 0 0 1 23.300781 23.28125 L 23.300781 22.28125 z M 34.982422 22.962891 C 34.948348 22.977395 34.917361 22.993502 34.882812 23.007812 L 34.798828 23.042969 A 11.200007 11.200007 0 0 1 35.109375 24.599609 L 35.199219 24.599609 C 36.750415 24.599609 38 24.912983 38 25.300781 L 38 24.300781 C 38 23.912983 36.750415 23.599609 35.199219 23.599609 L 35.109375 23.599609 A 11.200007 11.200007 0 0 0 34.982422 22.962891 z M 13.027344 22.966797 A 11.200007 11.200007 0 0 0 12.900391 23.599609 L 12.800781 23.599609 C 11.249585 23.599609 10 23.912983 10 24.300781 L 10 25.300781 C 10 24.912983 11.249585 24.599609 12.800781 24.599609 L 12.900391 24.599609 A 11.200007 11.200007 0 0 1 13.210938 23.044922 L 13.117188 23.007812 C 13.085962 22.994878 13.058182 22.97989 13.027344 22.966797 z M 22.732422 25.5 A 1.4000009 1.4000009 0 0 0 22.599609 26 A 1.4000009 1.4000009 0 0 0 24 27.400391 A 1.4000009 1.4000009 0 0 0 25.400391 26 A 1.4000009 1.4000009 0 0 0 25.306641 25.5 A 1.4000009 1.4000009 0 0 1 24 26.400391 A 1.4000009 1.4000009 0 0 1 22.732422 25.5 z M 14.939453 25.537109 A 9.1049394 9.1049394 0 0 0 14.894531 26 A 9.1049394 9.1049394 0 0 0 15.830078 29.941406 L 21.298828 26.783203 A 2.8134146 2.8134146 0 0 1 21.185547 26 A 2.8134146 2.8134146 0 0 1 21.214844 25.832031 L 15.830078 28.941406 A 9.1049394 9.1049394 0 0 1 14.939453 25.537109 z M 33.0625 25.550781 A 9.1049394 9.1049394 0 0 1 32.197266 28.957031 L 26.787109 25.832031 A 2.8134146 2.8134146 0 0 1 26.814453 26 A 2.8134146 2.8134146 0 0 1 26.701172 26.783203 L 32.197266 29.957031 A 9.1049394 9.1049394 0 0 0 33.105469 26 A 9.1049394 9.1049394 0 0 0 33.0625 25.550781 z M 4.5 27.519531 L 4.5 28.519531 L 4.6738281 28.519531 C 5.0616269 28.519531 5.375 29.769108 5.375 31.320312 L 5.375 31.419922 C 5.8992557 31.486674 6.4181333 31.590449 6.9277344 31.730469 L 6.9667969 31.636719 C 7.5604151 30.203602 8.3272578 29.169972 8.6855469 29.318359 L 9.9785156 29.853516 C 10.02502 29.872778 10.061511 29.911778 10.089844 29.966797 C 10.201088 29.364226 10.175837 28.935245 9.9785156 28.853516 L 8.6855469 28.318359 C 8.3272578 28.169972 7.5604151 29.203602 6.9667969 30.636719 L 6.9277344 30.730469 C 6.4181328 30.590449 5.8992557 30.486674 5.375 30.419922 L 5.375 30.320312 C 5.375 28.769108 5.0616269 27.519531 4.6738281 27.519531 L 4.5 27.519531 z M 43.273438 27.519531 C 42.885638 27.519531 42.574219 28.769108 42.574219 30.320312 L 42.574219 30.419922 C 42.049305 30.486582 41.529774 30.590359 41.019531 30.730469 L 40.980469 30.636719 C 40.386847 29.203602 39.621962 28.169972 39.263672 28.318359 L 37.96875 28.853516 C 37.771428 28.935245 37.746177 29.364226 37.857422 29.966797 C 37.885755 29.911778 37.922245 29.872778 37.96875 29.853516 L 39.263672 29.318359 C 39.621962 29.169972 40.386847 30.203602 40.980469 31.636719 L 41.019531 31.730469 C 41.529774 31.590359 42.049305 31.486582 42.574219 31.419922 L 42.574219 31.320312 C 42.574219 29.769108 42.885638 28.519531 43.273438 28.519531 L 43.5 28.519531 L 43.5 27.519531 L 43.273438 27.519531 z M 13.027344 28.033203 C 11.642853 28.621002 10.653662 29.360464 10.798828 29.710938 L 11.017578 30.244141 C 11.382554 29.865403 12.154535 29.390935 13.117188 28.992188 L 13.210938 28.955078 A 11.200007 11.200007 0 0 1 13.027344 28.033203 z M 34.972656 28.033203 A 11.200007 11.200007 0 0 1 34.789062 28.955078 L 34.882812 28.992188 C 35.843721 29.390222 36.614647 29.863782 36.980469 30.242188 L 37.201172 29.710938 C 37.346338 29.360464 36.357138 28.621011 34.972656 28.033203 z M 17.097656 30.826172 L 16.533203 31.152344 A 9.1049394 9.1049394 0 0 0 24 35.105469 A 9.1049394 9.1049394 0 0 0 31.496094 31.167969 L 30.929688 30.839844 A 9.1049394 9.1049394 0 0 1 24 34.105469 A 9.1049394 9.1049394 0 0 1 17.097656 30.826172 z M 34.03125 31.664062 L 33.580078 32.115234 C 33.474639 32.220674 33.511454 32.450773 33.654297 32.753906 C 33.524262 32.592532 33.377333 32.42556 33.222656 32.257812 A 11.200007 11.200007 0 0 1 32.828125 32.847656 L 32.910156 32.929688 C 33.189496 33.209029 33.439635 33.487509 33.654297 33.753906 C 33.511457 33.450773 33.474639 33.220674 33.580078 33.115234 L 34.570312 32.125 C 34.844522 31.85078 35.946116 32.512516 37.042969 33.609375 L 37.125 33.691406 C 37.54133 33.368585 37.979919 33.075538 38.4375 32.814453 L 38.394531 32.707031 C 38.294033 32.464408 38.209493 32.23067 38.132812 32.001953 C 37.78559 32.215047 37.44709 32.441658 37.125 32.691406 L 37.042969 32.609375 C 36.867958 32.434363 36.693357 32.275822 36.521484 32.125 C 36.152012 32.283289 35.160669 32.104425 34.03125 31.664062 z M 13.931641 31.677734 C 12.783076 32.120795 11.777186 32.295554 11.439453 32.113281 C 11.26307 32.267422 11.083997 32.429673 10.904297 32.609375 L 10.822266 32.691406 C 10.500174 32.441659 10.161675 32.215047 9.8144531 32.001953 C 9.7377727 32.23067 9.6532324 32.464408 9.5527344 32.707031 L 9.5097656 32.814453 C 9.9673455 33.075538 10.405933 33.368587 10.822266 33.691406 L 10.904297 33.609375 C 12.001144 32.512518 13.104699 31.85078 13.378906 32.125 L 14.195312 32.941406 C 14.415155 32.547375 14.494858 32.240952 14.369141 32.115234 L 13.931641 31.677734 z M 14.78125 32.261719 C 14.56626 32.496549 14.367358 32.727535 14.201172 32.947266 L 14.369141 33.115234 C 14.499025 33.24512 14.412636 33.565357 14.175781 33.978516 C 14.424267 33.646906 14.730201 33.289333 15.089844 32.929688 L 15.171875 32.847656 A 11.200007 11.200007 0 0 1 14.78125 32.261719 z M 13.802734 34.535156 C 13.793867 34.547015 13.782452 34.56034 13.773438 34.572266 L 13.779297 34.578125 C 13.787805 34.562901 13.7938 34.550649 13.802734 34.535156 z M 13.210938 35.240234 C 13.104969 35.356612 13.002372 35.472236 12.884766 35.589844 L 12.802734 35.671875 C 13.125557 36.088205 13.418603 36.526794 13.679688 36.984375 L 13.787109 36.941406 C 15.220216 36.347779 16.492225 36.157335 16.640625 36.515625 L 16.955078 37.277344 C 17.134843 37.091396 17.224677 36.926642 17.175781 36.808594 L 16.640625 35.515625 C 16.622075 35.470839 16.586939 35.434173 16.535156 35.40625 C 15.634932 36.192949 14.824996 36.623825 14.595703 36.394531 L 14.042969 35.841797 C 13.957337 35.874842 13.874145 35.905354 13.787109 35.941406 L 13.679688 35.984375 C 13.534348 35.729651 13.375709 35.482624 13.210938 35.240234 z M 34.734375 35.242188 C 34.569837 35.483829 34.412795 35.730445 34.267578 35.984375 L 34.162109 35.941406 C 34.087254 35.910399 34.015256 35.886208 33.941406 35.857422 L 33.404297 36.394531 C 33.173839 36.624997 32.356918 36.188962 31.451172 35.394531 C 31.382717 35.424009 31.328666 35.462447 31.306641 35.515625 L 30.773438 36.808594 C 30.724721 36.926208 30.81382 37.0903 30.992188 37.275391 L 31.306641 36.515625 C 31.455038 36.157335 32.729006 36.347781 34.162109 36.941406 L 34.267578 36.984375 C 34.529292 36.526735 34.822992 36.088145 35.146484 35.671875 L 35.064453 35.589844 C 34.948095 35.473484 34.839774 35.357658 34.734375 35.242188 z M 18.164062 35.503906 C 17.84394 36.455182 17.730134 37.250785 17.882812 37.550781 C 17.973231 37.059541 18.153537 36.455608 18.419922 35.8125 L 18.464844 35.705078 A 11.200007 11.200007 0 0 1 18.164062 35.503906 z M 29.835938 35.503906 A 11.200007 11.200007 0 0 1 29.535156 35.705078 L 29.580078 35.8125 C 29.846201 36.454976 30.024718 37.059355 30.115234 37.550781 C 30.26818 37.250743 30.156187 36.455934 29.835938 35.503906 z M 14.970703 39.476562 C 14.932068 39.493069 14.896673 39.511085 14.857422 39.527344 L 14.763672 39.566406 C 14.903692 40.076009 15.007469 40.594884 15.074219 41.119141 L 15.173828 41.119141 C 16.725025 41.119141 17.974609 41.432515 17.974609 41.820312 L 17.974609 40.820312 C 17.974609 40.432515 16.725025 40.119141 15.173828 40.119141 L 15.074219 40.119141 C 15.046774 39.903588 15.010612 39.690025 14.970703 39.476562 z M 32.976562 39.476562 C 32.936653 39.690025 32.900492 39.903588 32.873047 40.119141 L 32.773438 40.119141 C 31.222241 40.119141 29.974609 40.432515 29.974609 40.820312 L 29.974609 41.820312 C 29.974609 41.432515 31.222241 41.119141 32.773438 41.119141 L 32.873047 41.119141 C 32.939799 40.594884 33.043574 40.076009 33.183594 39.566406 L 33.091797 39.527344 C 33.051982 39.510851 33.015744 39.49331 32.976562 39.476562 z M 13.060547 41.960938 C 13.017943 42.825638 12.860687 43.680745 12.576172 44.5 L 12.853516 44.5 C 12.998784 43.850642 13.079599 43.187026 13.080078 42.519531 C 13.079852 42.333091 13.072165 42.146455 13.060547 41.960938 z M 34.888672 41.960938 C 34.877135 42.14644 34.86929 42.333112 34.869141 42.519531 C 34.86962 43.187026 34.950435 43.850642 35.095703 44.5 L 35.373047 44.5 C 35.088532 43.680745 34.931276 42.825638 34.888672 41.960938 z " />
  <path
     id="rect48996-8-9-6-9-9-3-10-93"
     style="font-variation-settings:normal;fill:#000000;fill-opacity:1;stroke:none;stroke-width:0.999997;stroke-linecap:round;stroke-linejoin:round;stroke-miterlimit:4;stroke-dasharray:none;stroke-dashoffset:0;stroke-opacity:0.5;stop-color:#000000;opacity:0.05;vector-effect:none;-inkscape-stroke:none;stop-opacity:1"
     d="M 17.884766 12.449219 C 17.731822 12.749257 17.843816 13.544066 18.164062 14.496094 A 11.200007 11.200007 0 0 1 18.464844 14.294922 L 18.419922 14.1875 C 18.153803 13.545024 17.975283 12.940645 17.884766 12.449219 z M 30.117188 12.449219 C 30.026768 12.94046 29.846463 13.544392 29.580078 14.1875 L 29.544922 14.271484 A 11.200007 11.200007 0 0 1 29.84375 14.472656 C 30.157714 13.53193 30.2686 12.746716 30.117188 12.449219 z M 24.699219 14.923828 L 24.699219 15.923828 A 9.1049394 9.1049394 0 0 1 33.0625 24.550781 A 9.1049394 9.1049394 0 0 0 33.105469 24 A 9.1049394 9.1049394 0 0 0 24.699219 14.923828 z M 23.300781 14.955078 A 9.1049394 9.1049394 0 0 0 14.894531 24 A 9.1049394 9.1049394 0 0 0 14.939453 24.537109 A 9.1049394 9.1049394 0 0 1 23.300781 15.955078 L 23.300781 14.955078 z M 13.779297 15.421875 L 13.605469 15.595703 C 13.35868 15.842501 13.872997 16.761339 14.777344 17.742188 A 11.200007 11.200007 0 0 1 15.171875 17.152344 L 15.089844 17.070312 C 14.496385 16.476859 14.038674 15.886829 13.779297 15.421875 z M 34.220703 15.421875 C 33.961323 15.886829 33.50361 16.476859 32.910156 17.070312 L 32.845703 17.134766 A 11.200007 11.200007 0 0 1 33.240234 17.724609 C 34.134292 16.750515 34.639825 15.840997 34.394531 15.595703 L 34.220703 15.421875 z M 36.982422 19.755859 C 36.617446 20.134597 35.845465 20.609065 34.882812 21.007812 L 34.798828 21.042969 A 11.200007 11.200007 0 0 1 34.982422 21.962891 C 36.361741 21.375762 37.345984 20.638705 37.201172 20.289062 L 36.982422 19.755859 z M 11.019531 19.757812 L 10.798828 20.289062 C 10.653662 20.639536 11.642844 21.378998 13.027344 21.966797 A 11.200007 11.200007 0 0 1 13.210938 21.044922 L 13.117188 21.007812 C 12.156265 20.609784 11.385349 20.13622 11.019531 19.757812 z M 24 22.599609 A 1.4000009 1.4000009 0 0 0 22.599609 24 A 1.4000009 1.4000009 0 0 0 22.732422 24.5 A 1.4000009 1.4000009 0 0 1 24 23.599609 A 1.4000009 1.4000009 0 0 1 25.306641 24.5 A 1.4000009 1.4000009 0 0 0 25.400391 24 A 1.4000009 1.4000009 0 0 0 24 22.599609 z M 26.736328 24.535156 A 2.8134146 2.8134146 0 0 1 26.701172 24.783203 L 26.787109 24.832031 A 2.8134146 2.8134146 0 0 0 26.736328 24.535156 z M 21.263672 24.539062 A 2.8134146 2.8134146 0 0 0 21.214844 24.832031 L 21.298828 24.783203 A 2.8134146 2.8134146 0 0 1 21.263672 24.539062 z M 10 24.699219 L 10 25.699219 C 10 26.087017 11.249585 26.400391 12.800781 26.400391 L 12.900391 26.400391 A 11.200007 11.200007 0 0 0 13.027344 27.033203 C 13.058182 27.02011 13.085962 27.005122 13.117188 26.992188 L 13.210938 26.955078 A 11.200007 11.200007 0 0 1 12.900391 25.400391 L 12.800781 25.400391 C 11.249585 25.400391 10 25.087017 10 24.699219 z M 38 24.699219 C 38 25.087017 36.750413 25.400391 35.199219 25.400391 L 35.099609 25.400391 A 11.200007 11.200007 0 0 1 34.789062 26.955078 L 34.882812 26.992188 C 34.914038 27.005122 34.941818 27.02011 34.972656 27.033203 A 11.200007 11.200007 0 0 0 35.099609 26.400391 L 35.199219 26.400391 C 36.750415 26.400391 38 26.087017 38 25.699219 L 38 24.699219 z M 22.015625 25.984375 L 16.533203 29.152344 A 9.1049394 9.1049394 0 0 0 17.097656 29.826172 L 22.015625 26.984375 A 2.8134146 2.8134146 0 0 0 24 27.814453 A 2.8134146 2.8134146 0 0 0 25.984375 26.984375 L 30.929688 29.839844 A 9.1049394 9.1049394 0 0 0 31.496094 29.167969 L 25.984375 25.984375 A 2.8134146 2.8134146 0 0 1 24 26.814453 A 2.8134146 2.8134146 0 0 1 22.015625 25.984375 z M 10.089844 28.966797 C 9.9991004 29.458322 9.8194184 30.063202 9.5527344 30.707031 L 9.5097656 30.814453 C 9.6133427 30.873552 9.7128602 30.939604 9.8144531 31.001953 C 10.131915 30.055052 10.242838 29.263888 10.089844 28.966797 z M 37.857422 28.966797 C 37.704427 29.263888 37.815351 30.055052 38.132812 31.001953 C 38.234406 30.939605 38.333923 30.873552 38.4375 30.814453 L 38.394531 30.707031 C 38.127847 30.063202 37.948165 29.458322 37.857422 28.966797 z M 36.980469 29.242188 L 36.666016 30.003906 C 36.517616 30.362196 35.245608 30.173708 33.8125 29.580078 L 33.705078 29.535156 A 11.200007 11.200007 0 0 1 32.828125 30.847656 L 32.910156 30.929688 C 33.020281 31.039814 33.121992 31.148642 33.222656 31.257812 A 11.200007 11.200007 0 0 0 33.705078 30.535156 L 33.8125 30.580078 C 33.886778 30.610846 33.957972 30.635491 34.03125 30.664062 L 34.570312 30.125 C 34.80077 29.894534 35.616176 30.330569 36.521484 31.125 C 36.59055 31.095411 36.643855 31.057409 36.666016 31.003906 L 37.201172 29.710938 C 37.250068 29.592889 37.160233 29.428135 36.980469 29.242188 z M 11.017578 29.244141 C 10.839212 29.429233 10.750112 29.593323 10.798828 29.710938 L 11.332031 31.003906 C 11.350581 31.048692 11.387617 31.085305 11.439453 31.113281 C 12.339673 30.326583 13.149623 29.895707 13.378906 30.125 L 13.931641 30.677734 C 14.017071 30.64478 14.100687 30.616038 14.1875 30.580078 L 14.294922 30.535156 A 11.200007 11.200007 0 0 0 14.78125 31.261719 C 14.882313 31.15133 14.978345 31.041187 15.089844 30.929688 L 15.171875 30.847656 A 11.200007 11.200007 0 0 1 14.294922 29.535156 L 14.1875 29.580078 C 12.754392 30.173698 11.480431 30.362196 11.332031 30.003906 L 11.017578 29.244141 z M 43.5 31.453125 C 40.68188 31.594406 38.088494 33.034295 36.478516 35.351562 L 35.777344 36.5625 C 35.180645 37.796341 34.870241 39.148981 34.869141 40.519531 C 34.869246 40.666903 34.881432 40.813999 34.888672 40.960938 C 34.961951 39.782629 35.261807 38.628516 35.777344 37.5625 L 36.478516 36.351562 C 38.088494 34.034295 40.68188 32.594406 43.5 32.453125 L 43.5 31.453125 z M 4.5 31.457031 L 4.5 32.457031 C 7.299238 32.612771 9.8706581 34.049424 11.470703 36.351562 L 12.169922 37.5625 C 12.686041 38.62838 12.986749 39.782533 13.060547 40.960938 C 13.067787 40.813999 13.079972 40.666903 13.080078 40.519531 C 13.078417 39.14883 12.767294 37.796183 12.169922 36.5625 L 11.470703 35.351562 C 9.8706581 33.049424 7.299238 31.612771 4.5 31.457031 z M 14.195312 31.941406 C 14.188024 31.954469 14.183382 31.965258 14.175781 31.978516 C 14.183349 31.968416 14.193497 31.957413 14.201172 31.947266 L 14.195312 31.941406 z M 13.802734 32.535156 C 13.553644 32.86829 13.246411 33.228194 12.884766 33.589844 L 12.802734 33.671875 C 12.94585 33.856444 13.079717 34.047201 13.210938 34.240234 C 13.419229 34.011484 13.611575 33.786404 13.773438 33.572266 L 13.605469 33.404297 C 13.474749 33.273577 13.56222 32.952248 13.802734 32.535156 z M 34.318359 32.759766 C 34.463869 33.066135 34.500722 33.298106 34.394531 33.404297 L 33.404297 34.394531 C 33.130087 34.668751 32.026534 34.007014 30.929688 32.910156 L 30.847656 32.828125 A 11.200007 11.200007 0 0 1 29.535156 33.705078 L 29.580078 33.8125 C 29.678495 34.050097 29.760438 34.279463 29.835938 34.503906 A 11.200007 11.200007 0 0 0 30.847656 33.828125 L 30.929688 33.910156 C 31.104698 34.085168 31.279216 34.243709 31.451172 34.394531 C 31.819849 34.235774 32.811257 34.416895 33.941406 34.857422 L 34.394531 34.404297 C 34.500722 34.298106 34.463866 34.066135 34.318359 33.759766 C 34.444606 33.916691 34.585235 34.078796 34.734375 34.242188 C 34.866371 34.048336 35.002488 33.857169 35.146484 33.671875 L 35.064453 33.589844 C 34.783446 33.308834 34.533826 33.027591 34.318359 32.759766 z M 17.152344 32.828125 L 17.070312 32.910156 C 15.973446 34.007014 14.869923 34.668751 14.595703 34.394531 L 13.779297 33.578125 C 13.55875 33.972748 13.479604 34.278433 13.605469 34.404297 L 14.042969 34.841797 C 15.191077 34.398739 16.197836 34.224358 16.535156 34.40625 C 16.711541 34.252109 16.890609 34.089858 17.070312 33.910156 L 17.152344 33.828125 A 11.200007 11.200007 0 0 0 18.164062 34.503906 C 18.239562 34.279553 18.321505 34.050097 18.419922 33.8125 L 18.464844 33.705078 A 11.200007 11.200007 0 0 1 17.152344 32.828125 z M 21.044922 34.789062 L 21.007812 34.882812 C 20.414194 36.31592 19.647352 37.349572 19.289062 37.201172 L 17.996094 36.666016 C 17.949073 36.646538 17.911318 36.606791 17.882812 36.550781 C 17.77174 37.154233 17.798597 37.584204 17.996094 37.666016 L 19.289062 38.201172 C 19.647352 38.349572 20.414194 37.31592 21.007812 35.882812 L 21.044922 35.789062 A 11.200007 11.200007 0 0 0 22.599609 36.099609 L 22.599609 36.199219 C 22.599609 37.750425 22.912983 39 23.300781 39 L 24.699219 39 C 25.087017 39 25.400391 37.750425 25.400391 36.199219 L 25.400391 36.099609 A 11.200007 11.200007 0 0 0 26.955078 35.789062 L 26.992188 35.882812 C 27.585806 37.31593 28.352648 38.349562 28.710938 38.201172 L 30.003906 37.667969 C 30.201567 37.586097 30.226625 37.155539 30.115234 36.550781 C 30.08675 36.60666 30.050831 36.648533 30.003906 36.667969 L 28.710938 37.201172 C 28.352648 37.349562 27.585806 36.31593 26.992188 34.882812 L 26.955078 34.789062 A 11.200007 11.200007 0 0 1 25.400391 35.099609 L 25.400391 35.199219 C 25.400391 36.750425 25.087017 38 24.699219 38 L 23.300781 38 C 22.912983 38 22.599611 36.750422 22.599609 35.199219 L 22.599609 35.099609 A 11.200007 11.200007 0 0 1 21.044922 34.789062 z M 30.992188 36.275391 L 30.773438 36.808594 C 30.629161 37.156918 31.605446 37.890505 32.976562 38.476562 C 33.033718 38.170852 33.101144 37.866481 33.183594 37.566406 L 33.091797 37.527344 C 32.129152 37.128589 31.357165 36.654126 30.992188 36.275391 z M 16.955078 36.277344 C 16.589256 36.655749 15.818329 37.129308 14.857422 37.527344 L 14.763672 37.566406 C 14.846121 37.866481 14.913547 38.170852 14.970703 38.476562 C 16.342695 37.890388 17.320117 37.157059 17.175781 36.808594 L 16.955078 36.277344 z M 17.974609 41.220703 C 17.974609 41.608503 16.725025 41.919922 15.173828 41.919922 L 15.082031 41.919922 C 15.015461 42.445492 14.911685 42.965682 14.771484 43.476562 L 14.826172 43.5 L 12.853516 43.5 C 12.777969 43.837698 12.690053 44.172082 12.576172 44.5 L 14.826172 44.5 L 14.771484 44.476562 C 14.911685 43.965682 15.015461 43.445492 15.082031 42.919922 L 15.173828 42.919922 C 16.725025 42.919922 17.974609 42.608503 17.974609 42.220703 L 17.974609 41.220703 z M 29.974609 41.220703 L 29.974609 42.220703 C 29.974609 42.608503 31.222241 42.919922 32.773438 42.919922 L 32.865234 42.919922 C 32.931804 43.445492 33.03558 43.965682 33.175781 44.476562 L 33.123047 44.5 L 35.373047 44.5 C 35.259166 44.172082 35.17125 43.837698 35.095703 43.5 L 33.123047 43.5 L 33.175781 43.476562 C 33.03558 42.965682 32.931804 42.445492 32.865234 41.919922 L 32.773438 41.919922 C 31.222241 41.919922 29.974609 41.608503 29.974609 41.220703 z " />
  <rect
     style="opacity:0.2;fill:none;stroke:url(#linearGradient3058-5-8-4);stroke-width:1;stroke-linecap:round;stroke-linejoin:round;stroke-miterlimit:4;stroke-dasharray:none;stroke-dashoffset:0;stroke-opacity:1"
     id="rect6741-2"
     y="6.4999952"
     x="5.5000153"
     ry="3"
     rx="3"
     height="37"
     width="37" />
</svg>
